HIERARCHY
ROOT Hips
{
	OFFSET 0.00000 0.00000 0.00000
	CHANNELS 6 Xposition Yposition Zposition Zrotation Yrotation Xrotation 
	JOINT LHipJoint
	{
		OFFSET 0 0 0
		CHANNELS 3 Zrotation Yrotation Xrotation
		JOINT LeftHip
		{
			OFFSET 1.57358 -1.76629 0.73362
			CHANNELS 3 Zrotation Yrotation Xrotation
			JOINT LeftKnee
			{
				OFFSET 2.40600 -6.61045 0.00000
				CHANNELS 3 Zrotation Yrotation Xrotation
				JOINT LeftAnkle
				{
					OFFSET 2.66168 -7.31291 0.00000
					CHANNELS 3 Zrotation Yrotation Xrotation
					JOINT LeftToe
					{
						OFFSET 0.20870 -0.57341 2.12506
						CHANNELS 3 Zrotation Yrotation Xrotation
						End Site
						{
							OFFSET 0.00000 -0.00000 1.10557
						}
					}
				}
			}
		}
	}
	JOINT RHipJoint
	{
		OFFSET 0 0 0
		CHANNELS 3 Zrotation Yrotation Xrotation
		JOINT RightHip
		{
			OFFSET -1.49299 -1.76629 0.73362
			CHANNELS 3 Zrotation Yrotation Xrotation
			JOINT RightKnee
			{
				OFFSET -2.43663 -6.69460 0.00000
				CHANNELS 3 Zrotation Yrotation Xrotation
				JOINT RightAnkle
				{
					OFFSET -2.62959 -7.22474 0.00000
					CHANNELS 3 Zrotation Yrotation Xrotation
					JOINT RightToe
					{
						OFFSET -0.25784 -0.70841 2.21862
						CHANNELS 3 Zrotation Yrotation Xrotation
						End Site
						{
							OFFSET -0.00000 -0.00000 1.16452
						}
					}
				}
			}
		}
	}
	JOINT lowerback
	{
		OFFSET 0 0 0
		CHANNELS 3 Zrotation Yrotation Xrotation
		JOINT Chest
		{
			OFFSET -0.00034 2.12399 -0.25450
			CHANNELS 3 Zrotation Yrotation Xrotation
			JOINT Chest2
			{
				OFFSET 0.05594 2.14379 -0.03318
				CHANNELS 3 Zrotation Yrotation Xrotation
				JOINT lowerneck
				{
					OFFSET 0 0 0
					CHANNELS 3 Zrotation Yrotation Xrotation
					JOINT Neck
					{
						OFFSET -0.09835 1.62725 0.24211
						CHANNELS 3 Zrotation Yrotation Xrotation
						JOINT Head
						{
							OFFSET 0.10849 1.66041 -0.22648
							CHANNELS 3 Zrotation Yrotation Xrotation
							End Site
							{
								OFFSET 0.04385 1.68267 -0.10541
							}
						}
					}
				}
				JOINT LeftCollar
				{
					OFFSET 0 0 0
					CHANNELS 3 Zrotation Yrotation Xrotation
					JOINT LeftShoulder
					{
						OFFSET 3.29108 0.79398 -0.68179
CHANNELS 3 Zrotation Xrotation Yrotation
						JOINT LeftElbow
						{
OFFSET 0 -5.153100 -0.000000
CHANNELS 3 Zrotation Xrotation Yrotation
							JOINT LeftWrist
							{
OFFSET 0 -3.751380 -0.000000
CHANNELS 3 Zrotation Xrotation Yrotation
								JOINT lhand
								{
									OFFSET 0 0 0
CHANNELS 3 Zrotation Xrotation Yrotation
									JOINT LFingers
									{
OFFSET 0 -0.529170 0.000000
CHANNELS 3 Zrotation Xrotation Yrotation
										End Site
										{
OFFSET 0 -0.426630 0.000000
										}
									}
								}
								JOINT LThumb
								{
OFFSET 0 0.000000 0.000000
CHANNELS 3 Zrotation Xrotation Yrotation
									End Site
									{
OFFSET 0 -0.433150 0.433150
									}
								}
							}
						}
					}
				}
				JOINT RightCollar
				{
					OFFSET 0 0 0
					CHANNELS 3 Zrotation Yrotation Xrotation
					JOINT RightShoulder
					{
						OFFSET -3.07414 1.06285 -0.44338
CHANNELS 3 Zrotation Xrotation Yrotation
						JOINT RightElbow
						{
OFFSET 0 -5.296130 0.000000
CHANNELS 3 Zrotation Xrotation Yrotation
							JOINT RightWrist
							{
OFFSET 0 -3.761440 -0.000000
CHANNELS 3 Zrotation Xrotation Yrotation
								JOINT rhand
								{
									OFFSET 0 0 0
CHANNELS 3 Zrotation Xrotation Yrotation
									JOINT RFingers
									{
OFFSET 0 -0.747320 0.000000
CHANNELS 3 Zrotation Xrotation Yrotation
										End Site
										{
OFFSET 0 -0.602510 0.000000
										}
									}
								}
								JOINT RThumb
								{
OFFSET 0 0.000000 0.000000
CHANNELS 3 Zrotation Xrotation Yrotation
									End Site
									{
OFFSET 0 -0.611710 0.611710
									}
								}
							}
						}
					}
				}
			}
		}
	}
}
MOTION
Frames: 6
Frame Time: 0.008333333333333333
0.991400 16.739100 -36.762500 6.531800 -0.687200 11.811700 0.000000 0.000000 0.000000 -30.914800 -1.137000 5.166900 2.571000 9.966000 28.866500 0.007100 -2.471900 -2.174600 2.519700 -9.873700 -28.568600 0.000000 0.000000 0.000000 8.146800 11.732700 -56.569900 -15.541700 -19.516600 76.863100 -0.169100 0.971600 -7.483700 -0.365300 3.882300 -10.745700 -11.100500 -5.875300 13.497600 6.027700 -9.310500 -3.743800 14.869400 -3.700800 -8.889300 -15.093700 2.228600 -13.758700 6.556400 5.070900 6.960900 4.791700 2.484100 3.757700 0.000000 0.000000 0.000000 -7.703200 4.674700 -32.060300 156.817700 -34.287500 112.759300 15.778900 -28.063700 -3.858200 0.000000 0.000000 0.000000 -7.125000 0.000000 0.000000 -8.886600 33.887100 -2.447200 0.000000 0.000000 0.000000 -29.587600 41.515500 55.671200 -121.203400 -55.980600 -86.658300 -28.815200 -30.188000 -33.537400 0.000000 0.000000 0.000000 7.125000 0.000000 -0.000000 1.980000 -7.107700 2.211000
0.977179 16.737860 -36.628559 5.908974 -3.108839 12.688546 0.000000 0.000000 0.000000 -31.058297 0.179644 3.907546 2.555765 9.938504 28.777837 0.009106 -1.812248 -1.172603 2.503586 -9.844243 -28.473920 0.000000 0.000000 0.000000 8.064628 14.296415 -57.522112 -15.110151 -19.399472 75.555606 -0.149312 1.077436 -6.940973 -0.391376 4.009660 -11.104768 -11.345168 -5.112043 12.235767 6.084720 -8.184861 -3.799040 14.803635 -3.161634 -8.561198 -14.980404 2.134663 -13.952050 6.521106 4.957288 7.102616 4.764813 2.425818 3.848414 0.000000 0.000000 0.000000 -7.477306 4.595233 -32.535572 157.076792 -34.000462 112.902887 15.357831 -27.848083 -3.953309 0.000000 0.000000 0.000000 -7.125000 0.000000 0.000000 -9.241116 33.967153 -2.526780 0.000000 0.000000 0.000000 -29.245480 41.888114 55.207107 -121.397291 -55.925135 -86.818767 -29.018331 -30.200982 -33.489485 0.000000 0.000000 0.000000 7.125000 0.000000 0.000000 1.858883 -7.114439 2.075797
0.962958 16.736621 -36.494619 5.286149 -5.530477 13.565393 0.000000 0.000000 0.000000 -31.201793 1.496289 2.648192 2.540529 9.911008 28.689174 0.011112 -1.152596 -0.170605 2.487471 -9.814787 -28.379239 0.000000 0.000000 0.000000 7.982456 16.860131 -58.474324 -14.678602 -19.282345 74.248112 -0.129524 1.183273 -6.398246 -0.417452 4.137020 -11.463837 -11.589836 -4.348786 10.973934 6.141740 -7.059223 -3.854279 14.737871 -2.622468 -8.233096 -14.867107 2.040727 -14.145399 6.485812 4.843676 7.244332 4.737925 2.367536 3.939127 0.000000 0.000000 0.000000 -7.251412 4.515765 -33.010844 157.335884 -33.713423 113.046474 14.936761 -27.632466 -4.048417 0.000000 0.000000 0.000000 -7.125000 0.000000 0.000000 -9.595632 34.047207 -2.606360 0.000000 0.000000 0.000000 -28.903360 42.260727 54.743013 -121.591181 -55.869670 -86.979235 -29.221462 -30.213963 -33.441570 0.000000 0.000000 0.000000 7.125000 0.000000 0.000000 1.737766 -7.121177 1.940594
0.948736 16.735381 -36.360678 4.663323 -7.952116 14.442239 0.000000 0.000000 0.000000 -31.345290 2.812933 1.388838 2.525294 9.883513 28.600512 0.013118 -0.492944 0.831392 2.471357 -9.785330 -28.284559 0.000000 0.000000 0.000000 7.900284 19.423846 -59.426536 -14.247052 -19.165217 72.940618 -0.109736 1.289109 -5.855519 -0.443528 4.264379 -11.822905 -11.834503 -3.585529 9.712101 6.198760 -5.933584 -3.909519 14.672106 -2.083302 -7.904994 -14.753811 1.946790 -14.338749 6.450519 4.730064 7.386049 4.711038 2.309254 4.029841 0.000000 0.000000 0.000000 -7.025518 4.436298 -33.486116 157.594975 -33.426385 113.190060 14.515692 -27.416849 -4.143526 0.000000 0.000000 0.000000 -7.125000 0.000000 0.000000 -9.950148 34.127260 -2.685940 0.000000 0.000000 0.000000 -28.561239 42.633341 54.278920 -121.785072 -55.814205 -87.139702 -29.424593 -30.226945 -33.393655 0.000000 0.000000 0.000000 7.125000 0.000000 0.000000 1.616649 -7.127916 1.805391
0.934515 16.734142 -36.226737 4.040498 -10.373754 15.319086 0.000000 0.000000 0.000000 -31.488787 4.129578 0.129484 2.510058 9.856017 28.511849 0.015123 0.166708 1.833390 2.455243 -9.755874 -28.189879 0.000000 0.000000 0.000000 7.818112 21.987561 -60.378748 -13.815503 -19.048089 71.633123 -0.089948 1.394946 -5.312792 -0.469604 4.391739 -12.181974 -12.079171 -2.822272 8.450268 6.255780 -4.807946 -3.964758 14.606342 -1.544136 -7.576893 -14.640515 1.852854 -14.532099 6.415225 4.616453 7.527765 4.684151 2.250971 4.120555 0.000000 0.000000 0.000000 -6.799624 4.356830 -33.961388 157.854067 -33.139346 113.333647 14.094623 -27.201233 -4.238634 0.000000 0.000000 0.000000 -7.125000 0.000000 0.000000 -10.304663 34.207314 -2.765521 0.000000 0.000000 0.000000 -28.219119 43.005954 53.814826 -121.978963 -55.758740 -87.300170 -29.627724 -30.239927 -33.345741 0.000000 0.000000 0.000000 7.125000 0.000000 0.000000 1.495533 -7.134655 1.670189
0.926816 16.737850 -36.085006 3.748520 -11.620273 15.721712 0.000000 0.000000 0.000000 -31.589525 4.879292 -0.082262 2.429417 9.698598 28.014068 0.058606 0.988040 3.324756 2.349844 -9.540744 -27.516482 0.000000 0.000000 0.000000 7.797933 23.285464 -60.803946 -13.421852 -18.920557 70.422386 -0.080031 1.513457 -5.034124 -0.505284 4.548408 -12.626330 -12.009574 -2.324710 7.728631 6.096549 -4.065137 -3.887055 14.211392 -1.213075 -7.315465 -14.362353 1.656095 -14.877182 6.426051 4.344649 7.656463 4.636633 2.125888 4.249294 0.000000 0.000000 0.000000 -6.298151 4.105785 -34.673529 158.069906 -32.896538 113.451605 13.896631 -27.100923 -4.340302 0.000000 0.000000 0.000000 -7.125000 0.000000 0.000000 -10.479685 34.302491 -2.790061 0.000000 0.000000 0.000000 -27.233866 43.337776 52.844705 -122.142973 -55.711078 -87.435744 -29.669986 -30.129798 -33.284986 0.000000 0.000000 0.000000 7.125000 0.000000 0.000000 1.459893 -7.082941 1.629117
